<?xml version="1.0" encoding="iso-8859-1"?>
<!DOCTYPE svg PUBLIC "-//W3C//DTD SVG 1.0//EN" "http://www.w3.org/TR/2001/REC-SVG-20010904/DTD/svg10.dtd">
<!-- Creator: CorelDRAW -->
<svg xmlns="http://www.w3.org/2000/svg" xmlns:odm="http://product.corel.com/CGS/11/cddns/" xml:space="preserve" width="6.29921in" height="6.29921in" style="shape-rendering:geometricPrecision; text-rendering:geometricPrecision; image-rendering:optimizeQuality; fill-rule:evenodd"
     viewBox="0 0 6300 6300">
 <defs>
  <style type="text/css">
   <![CDATA[
    .str0 {stroke:#131516;stroke-width:3}
    .str3 {stroke:#0BADDC;stroke-width:28;stroke-linejoin:bevel}
    .str1 {stroke:#CF3560;stroke-width:28}
    .str2 {stroke:#F3BE00;stroke-width:28}
    .fil2 {fill:none}
    .fil4 {fill:#0BADDC}
    .fil6 {fill:#131516}
    .fil1 {fill:#B2B4B7}
    .fil5 {fill:#CF3560}
    .fil0 {fill:#E7E8EA}
    .fil3 {fill:#F3BE00}
   ]]>
  </style>
 </defs>
 <g id="Ebene 1">
  <path class="fil0 str0" d="M3623 2696l62 71 -1502 1293 -62 -72 1502 -1292z"/>
  <rect class="fil1 str0" x="18" y="3254" width="996" height="447"/>
  <path class="fil2 str1" d="M2701 3491l3436 0"/>
  <path class="fil2 str2" d="M1028 3491l1673 0"/>
  <path class="fil2 str3" d="M3034 3361l-173 -3269 -159 3385"/>
  <path class="fil2 str1" d="M6123 3491l-3103 -130"/>
  <path class="fil2 str2" d="M3034 3361l83 1938"/>
  <path class="fil3" d="M1447 3566l216 -75 -216 -75 0 150z"/>
  <path class="fil4" d="M3023 1615l-72 218 -79 -215 151 -3 0 0z"/>
  <path class="fil5" d="M3496 3566l217 -75 -217 -75 0 150z"/>
  <path class="fil5" d="M3901 3313l-218 72 215 79 3 -151z"/>
  <path class="fil3" d="M3160 4580l-61 221 -90 -211 151 -10z"/>
  <path class="fil6" d="M93 2784l0 -159 21 0 0 140 78 0 0 19 -99 0z"/>
  <path class="fil6" d="M215 2647l0 -22 19 0 0 22 -19 0zm0 137l0 -116 19 0 0 116 -19 0z"/>
  <path class="fil6" d="M339 2741l19 3c-2,13 -7,23 -16,31 -9,7 -19,11 -32,11 -16,0 -28,-5 -38,-15 -9,-11 -14,-25 -14,-45 0,-12 2,-23 6,-32 4,-10 10,-17 19,-21 8,-5 17,-7 27,-7 13,0 23,3 31,9 8,7 13,16 15,27l-19 3c-2,-8 -5,-13 -9,-17 -5,-4 -10,-6 -17,-6 -10,0 -18,3 -24,10 -6,7 -9,19 -9,34 0,15 3,27 9,34 6,7 13,10 23,10 8,0 14,-2 19,-7 5,-5 9,-12 10,-22z"/>
  <path class="fil6" d="M375 2784l0 -159 19 0 0 57c9,-11 21,-16 35,-16 8,0 16,2 22,5 6,3 11,8 13,14 3,6 5,14 5,26l0 73 -20 0 0 -73c0,-10 -2,-17 -6,-22 -5,-4 -11,-6 -18,-6 -6,0 -11,1 -17,4 -5,3 -8,7 -10,12 -3,5 -4,13 -4,22l0 63 -19 0z"/>
  <path class="fil6" d="M541 2766l3 17c-6,1 -11,2 -15,2 -7,0 -13,-1 -17,-3 -3,-3 -6,-5 -8,-9 -1,-4 -2,-11 -2,-23l0 -66 -15 0 0 -16 15 0 0 -28 19 -12 0 40 20 0 0 16 -20 0 0 67c0,5 1,9 1,11 1,1 2,2 4,3 1,1 3,2 6,2 2,0 5,0 9,-1z"/>
  <path class="fil6" d="M633 2828l0 -57c-3,5 -7,8 -12,11 -6,3 -12,4 -18,4 -14,0 -25,-5 -35,-16 -10,-11 -15,-26 -15,-45 0,-12 2,-22 6,-31 4,-9 10,-16 18,-21 7,-5 16,-7 25,-7 14,0 25,6 33,18l0 -16 18 0 0 160 -20 0zm-60 -102c0,14 3,26 9,33 7,7 14,11 23,11 8,0 15,-3 21,-10 6,-8 9,-18 9,-33 0,-15 -3,-26 -9,-34 -7,-8 -14,-12 -23,-12 -8,0 -15,4 -21,11 -6,7 -9,18 -9,34z"/>
  <path class="fil6" d="M759 2784l0 -17c-9,13 -21,19 -37,19 -7,0 -13,-1 -19,-4 -6,-2 -10,-6 -13,-10 -3,-4 -5,-8 -6,-14 -1,-4 -1,-10 -1,-18l0 -72 19 0 0 64c0,10 1,17 2,21 1,5 3,9 7,12 4,3 9,4 15,4 6,0 11,-1 17,-4 5,-3 8,-7 11,-12 2,-6 3,-13 3,-23l0 -62 19 0 0 116 -17 0z"/>
  <path class="fil6" d="M886 2746l20 3c-3,12 -9,21 -18,27 -9,7 -20,10 -33,10 -17,0 -30,-5 -40,-15 -10,-11 -15,-25 -15,-44 0,-19 5,-34 15,-45 10,-11 23,-16 39,-16 15,0 28,5 38,16 10,10 14,25 14,44 0,1 0,3 0,5l-86 0c1,13 5,22 11,29 7,7 15,10 24,10 7,0 13,-2 19,-6 5,-3 9,-9 12,-18zm-64 -31l64 0c-1,-10 -4,-17 -8,-22 -6,-7 -14,-11 -24,-11 -9,0 -16,3 -22,9 -6,6 -10,14 -10,24z"/>
  <path class="fil6" d="M930 2784l0 -159 19 0 0 159 -19 0z"/>
  <path class="fil6" d="M979 2784l0 -159 20 0 0 159 -20 0z"/>
  <path class="fil6" d="M1108 2746l20 3c-3,12 -9,21 -18,27 -8,7 -19,10 -33,10 -17,0 -30,-5 -40,-15 -10,-11 -15,-25 -15,-44 0,-19 5,-34 15,-45 10,-11 23,-16 39,-16 16,0 28,5 38,16 10,10 14,25 14,44 0,1 0,3 0,5l-85 0c0,13 4,22 10,29 7,7 15,10 24,10 7,0 14,-2 19,-6 5,-3 9,-9 12,-18zm-64 -31l64 0c-1,-10 -3,-17 -7,-22 -7,-7 -15,-11 -25,-11 -9,0 -16,3 -22,9 -6,6 -10,14 -10,24z"/>
  <path class="fil6" d="M1214 2784l0 -116 17 0 0 17c4,-6 9,-11 15,-14 6,-3 13,-5 20,-5 9,0 16,2 21,5 6,4 10,9 12,15 9,-13 21,-20 35,-20 12,0 21,3 27,9 6,7 9,16 9,30l0 79 -19 0 0 -73c0,-8 -1,-13 -2,-17 -2,-3 -4,-6 -7,-8 -4,-2 -7,-3 -12,-3 -8,0 -15,2 -20,8 -5,5 -8,14 -8,26l0 67 -20 0 0 -75c0,-9 -1,-15 -4,-20 -4,-4 -9,-6 -16,-6 -5,0 -11,1 -15,4 -5,3 -8,7 -10,13 -2,5 -3,13 -3,24l0 60 -20 0z"/>
  <path class="fil6" d="M1399 2647l0 -22 20 0 0 22 -20 0zm0 137l0 -116 20 0 0 116 -20 0z"/>
  <path class="fil6" d="M1491 2766l3 17c-6,1 -11,2 -15,2 -7,0 -13,-1 -17,-3 -4,-3 -6,-5 -8,-9 -1,-4 -2,-11 -2,-23l0 -66 -15 0 0 -16 15 0 0 -28 19 -12 0 40 20 0 0 16 -20 0 0 67c0,5 1,9 1,11 1,1 2,2 4,3 1,1 3,2 6,2 2,0 5,0 9,-1z"/>
  <path class="fil6" d="M91 3032l0 -159 20 0 0 90 46 -47 25 0 -44 43 49 73 -25 0 -38 -59 -13 13 0 46 -20 0z"/>
  <path class="fil6" d="M195 2974c0,-21 6,-37 18,-47 9,-9 21,-13 36,-13 16,0 29,5 39,15 10,11 15,25 15,43 0,15 -3,27 -7,35 -5,9 -11,15 -19,20 -9,5 -18,7 -28,7 -16,0 -29,-5 -39,-15 -10,-11 -15,-26 -15,-45zm20 0c0,15 3,26 9,33 7,7 15,11 25,11 9,0 17,-4 24,-11 6,-7 10,-19 10,-34 0,-14 -4,-25 -10,-32 -7,-7 -15,-11 -24,-11 -10,0 -18,4 -25,11 -6,7 -9,18 -9,33z"/>
  <path class="fil6" d="M325 3032l0 -159 20 0 0 57c9,-11 21,-16 34,-16 9,0 16,2 23,5 6,3 10,8 13,14 3,6 4,14 4,26l0 73 -19 0 0 -73c0,-10 -2,-17 -7,-22 -4,-4 -10,-6 -18,-6 -5,0 -11,1 -16,4 -5,3 -9,7 -11,12 -2,5 -3,13 -3,22l0 63 -20 0z"/>
  <path class="fil6" d="M524 3017c-7,6 -14,11 -21,13 -7,3 -14,4 -21,4 -13,0 -23,-3 -30,-9 -6,-6 -10,-14 -10,-24 0,-5 2,-11 4,-15 3,-5 6,-9 10,-11 4,-3 9,-5 14,-7 4,-1 10,-2 18,-3 15,-2 27,-4 34,-7 0,-2 1,-4 1,-5 0,-8 -2,-13 -6,-16 -5,-5 -12,-7 -22,-7 -9,0 -16,2 -21,5 -4,3 -7,9 -9,17l-19 -3c1,-8 4,-14 8,-19 4,-6 10,-9 17,-12 8,-3 17,-4 27,-4 9,0 17,1 24,3 6,3 10,6 13,9 3,4 5,8 6,13 1,4 1,10 1,18l0 26c0,18 1,30 1,35 1,5 3,9 5,14l-20 0c-2,-4 -3,-9 -4,-15zm-2 -43c-7,3 -17,5 -31,7 -8,1 -14,3 -17,4 -4,1 -6,4 -8,6 -2,3 -3,6 -3,10 0,5 2,9 6,13 4,3 10,5 17,5 8,0 15,-2 20,-5 6,-3 11,-8 13,-14 2,-4 3,-10 3,-19l0 -7zm-57 -80l0 -22 20 0 0 22 -20 0zm40 0l0 -22 21 0 0 22 -21 0z"/>
  <path class="fil6" d="M572 3032l0 -116 18 0 0 18c4,-8 8,-14 12,-16 4,-3 8,-4 13,-4 6,0 13,2 20,6l-7 18c-5,-3 -10,-4 -14,-4 -5,0 -8,1 -12,4 -3,2 -6,6 -7,11 -2,6 -3,14 -3,22l0 61 -20 0z"/>
  <path class="fil6" d="M725 2994l20 3c-3,12 -9,21 -17,27 -9,7 -20,10 -33,10 -17,0 -31,-5 -40,-15 -10,-11 -15,-25 -15,-44 0,-19 5,-34 15,-45 10,-11 23,-16 39,-16 15,0 28,5 37,16 10,10 15,25 15,44 0,1 0,3 0,5l-86 0c1,13 4,22 11,29 6,7 14,10 24,10 7,0 13,-2 18,-6 5,-3 9,-9 12,-18zm-64 -31l64 0c-1,-10 -3,-17 -7,-22 -6,-7 -14,-11 -24,-11 -9,0 -17,3 -23,9 -6,6 -9,14 -10,24z"/>
  <path class="fil6" d="M770 3032l0 -116 17 0 0 17c9,-13 21,-19 37,-19 7,0 13,1 19,4 6,2 10,5 13,9 3,4 5,9 6,15 1,3 1,10 1,19l0 71 -19 0 0 -70c0,-8 -1,-14 -3,-18 -1,-4 -4,-7 -8,-10 -3,-2 -8,-3 -13,-3 -9,0 -16,2 -22,8 -6,5 -9,15 -9,30l0 63 -19 0z"/>
  <path class="fil6" d="M936 3014l3 17c-6,1 -11,2 -15,2 -7,0 -13,-1 -17,-3 -4,-3 -6,-5 -8,-9 -1,-4 -2,-11 -2,-23l0 -66 -15 0 0 -16 15 0 0 -28 19 -12 0 40 20 0 0 16 -20 0 0 67c0,6 1,9 1,11 1,1 2,3 4,3 1,1 3,2 6,2 2,0 5,0 9,-1z"/>
  <path class="fil6" d="M1034 2994l20 3c-3,12 -9,21 -18,27 -8,7 -19,10 -33,10 -17,0 -30,-5 -40,-15 -10,-11 -15,-25 -15,-44 0,-19 5,-34 15,-45 10,-11 23,-16 39,-16 15,0 28,5 38,16 10,10 14,25 14,44 0,1 0,3 0,5l-85 0c0,13 4,22 10,29 7,7 15,10 24,10 7,0 14,-2 19,-6 5,-3 9,-9 12,-18zm-64 -31l64 0c-1,-10 -3,-17 -8,-22 -6,-7 -14,-11 -24,-11 -9,0 -16,3 -22,9 -6,6 -10,14 -10,24z"/>
  <path class="fil6" d="M1078 3032l0 -116 18 0 0 17c3,-6 8,-11 14,-14 6,-3 13,-5 21,-5 8,0 15,2 21,5 5,4 9,9 11,15 9,-13 21,-20 36,-20 11,0 20,3 26,9 6,7 9,16 9,30l0 79 -19 0 0 -73c0,-8 -1,-13 -2,-17 -1,-3 -4,-6 -7,-8 -3,-2 -7,-3 -12,-3 -8,0 -14,2 -20,8 -5,5 -8,14 -8,26l0 67 -19 0 0 -75c0,-9 -2,-15 -5,-20 -3,-4 -8,-6 -16,-6 -5,0 -10,1 -15,4 -5,3 -8,7 -10,13 -2,5 -3,13 -3,24l0 60 -20 0z"/>
  <path class="fil6" d="M1326 3032l0 -159 22 0 0 140 78 0 0 19 -100 0z"/>
  <path class="fil6" d="M1448 2895l0 -22 20 0 0 22 -20 0zm0 137l0 -116 20 0 0 116 -20 0z"/>
  <path class="fil6" d="M1573 2989l19 3c-2,13 -8,23 -16,31 -9,7 -19,11 -32,11 -16,0 -28,-5 -38,-15 -10,-11 -14,-25 -14,-45 0,-12 2,-23 6,-32 4,-10 10,-17 19,-21 8,-5 17,-7 27,-7 13,0 23,3 31,9 8,7 13,16 15,27l-19 3c-2,-8 -5,-13 -9,-17 -5,-4 -11,-6 -17,-6 -10,0 -18,3 -24,10 -6,8 -9,19 -9,34 0,15 3,27 9,34 6,7 13,10 23,10 7,0 14,-2 19,-7 5,-5 8,-12 10,-22z"/>
  <path class="fil6" d="M1609 3032l0 -159 19 0 0 57c9,-11 21,-16 35,-16 8,0 16,2 22,5 6,3 11,8 13,14 3,6 4,14 4,26l0 73 -19 0 0 -73c0,-10 -2,-17 -6,-22 -5,-4 -11,-6 -18,-6 -6,0 -12,1 -17,4 -5,3 -8,7 -11,12 -2,5 -3,13 -3,22l0 63 -19 0z"/>
  <path class="fil6" d="M1775 3014l2 17c-5,1 -10,2 -14,2 -7,0 -13,-1 -17,-3 -4,-3 -6,-5 -8,-9 -2,-4 -2,-11 -2,-23l0 -66 -15 0 0 -16 15 0 0 -28 19 -12 0 40 20 0 0 16 -20 0 0 67c0,6 0,9 1,11 1,1 2,3 3,3 2,1 4,2 7,2 2,0 5,0 9,-1z"/>
  <path class="fil6" d="M3499 5742l0 -159 55 0c13,0 22,1 28,2 10,2 17,6 24,12 8,7 14,16 19,27 4,11 6,23 6,38 0,12 -2,22 -4,32 -3,9 -7,17 -11,23 -5,6 -9,11 -15,14 -5,4 -11,6 -19,8 -7,2 -16,3 -25,3l-58 0zm21 -19l34 0c11,0 19,-1 25,-3 6,-2 11,-5 14,-8 5,-5 9,-12 12,-20 3,-9 4,-19 4,-31 0,-16 -3,-29 -8,-38 -6,-9 -12,-15 -20,-18 -6,-2 -15,-3 -27,-3l-34 0 0 121z"/>
  <path class="fil6" d="M3736 5705l20 2c-3,12 -9,21 -17,28 -9,6 -20,9 -33,9 -17,0 -31,-5 -40,-15 -10,-10 -15,-25 -15,-44 0,-19 5,-34 15,-45 10,-11 23,-16 39,-16 15,0 27,5 37,16 10,10 15,25 15,44 0,1 0,3 0,5l-86 0c1,13 4,23 11,29 6,7 14,10 24,10 7,0 13,-1 18,-5 5,-4 9,-10 12,-18zm-64 -32l64 0c-1,-9 -3,-17 -7,-22 -6,-7 -14,-11 -24,-11 -9,0 -17,3 -23,9 -6,6 -9,14 -10,24z"/>
  <path class="fil6" d="M3823 5724l3 18c-5,1 -10,1 -15,1 -7,0 -12,-1 -16,-3 -4,-2 -7,-5 -8,-9 -2,-3 -3,-11 -3,-23l0 -66 -14 0 0 -15 14 0 0 -29 20 -11 0 40 19 0 0 15 -19 0 0 67c0,6 0,9 1,11 0,2 1,3 3,4 2,1 4,1 7,1 2,0 5,0 8,-1z"/>
  <path class="fil6" d="M3921 5705l20 2c-3,12 -9,21 -17,28 -9,6 -20,9 -33,9 -17,0 -30,-5 -40,-15 -10,-10 -15,-25 -15,-44 0,-19 5,-34 15,-45 10,-11 23,-16 39,-16 15,0 28,5 37,16 10,10 15,25 15,44 0,1 0,3 0,5l-86 0c1,13 4,23 11,29 6,7 14,10 24,10 7,0 13,-1 18,-5 5,-4 9,-10 12,-18zm-64 -32l64 0c0,-9 -3,-17 -7,-22 -6,-7 -14,-11 -24,-11 -9,0 -17,3 -23,9 -6,6 -9,14 -10,24z"/>
  <path class="fil6" d="M3966 5742l0 -159 19 0 0 91 47 -47 25 0 -44 42 48 73 -24 0 -38 -59 -14 13 0 46 -19 0z"/>
  <path class="fil6" d="M4119 5724l3 18c-5,1 -10,1 -15,1 -7,0 -12,-1 -16,-3 -4,-2 -7,-5 -8,-9 -2,-3 -3,-11 -3,-23l0 -66 -14 0 0 -15 14 0 0 -29 20 -11 0 40 19 0 0 15 -19 0 0 67c0,6 0,9 1,11 0,2 2,3 3,4 2,1 4,1 7,1 2,0 5,0 8,-1z"/>
  <path class="fil6" d="M4131 5684c0,-21 6,-37 18,-47 10,-9 22,-13 36,-13 16,0 29,5 39,16 10,10 15,24 15,43 0,14 -2,26 -7,35 -4,8 -11,15 -19,19 -9,5 -18,7 -28,7 -16,0 -29,-5 -39,-15 -10,-10 -15,-25 -15,-45zm20 0c0,15 3,26 10,33 6,8 14,11 24,11 10,0 18,-3 24,-11 7,-7 10,-18 10,-33 0,-15 -3,-25 -10,-33 -6,-7 -14,-11 -24,-11 -10,0 -18,4 -24,11 -7,8 -10,19 -10,33z"/>
  <path class="fil6" d="M4262 5742l0 -115 17 0 0 17c5,-8 9,-13 13,-16 3,-3 8,-4 12,-4 7,0 13,2 20,6l-7 19c-4,-3 -9,-5 -14,-5 -4,0 -8,2 -11,4 -4,3 -6,6 -8,11 -2,7 -3,14 -3,23l0 60 -19 0z"/>
  <path class="fil6" d="M3782 2520l0 -159 20 0 0 57c9,-11 21,-16 34,-16 9,0 16,2 23,5 6,3 10,8 13,14 3,6 4,14 4,26l0 73 -19 0 0 -73c0,-10 -2,-17 -7,-22 -4,-4 -10,-6 -18,-6 -5,0 -11,1 -16,4 -5,3 -9,7 -11,12 -2,5 -3,13 -3,22l0 63 -20 0z"/>
  <path class="fil6" d="M3981 2505c-7,7 -14,11 -21,13 -7,3 -14,4 -21,4 -13,0 -23,-3 -30,-9 -6,-6 -10,-14 -10,-24 0,-5 2,-11 4,-15 3,-5 6,-9 10,-11 4,-3 9,-5 14,-7 4,-1 10,-2 18,-3 15,-2 27,-4 34,-6 0,-3 0,-5 0,-6 0,-7 -1,-13 -5,-16 -5,-5 -12,-7 -22,-7 -9,0 -16,2 -21,5 -4,3 -7,9 -9,17l-19 -3c1,-8 4,-14 8,-19 4,-5 10,-9 17,-12 8,-3 17,-4 27,-4 9,0 17,1 23,3 7,3 11,6 14,9 3,4 5,8 6,13 1,4 1,10 1,18l0 26c0,19 0,30 1,35 1,5 3,9 5,14l-20 0c-2,-4 -3,-9 -4,-15zm-2 -43c-7,3 -17,5 -32,7 -8,1 -13,3 -17,4 -3,2 -5,4 -7,6 -2,3 -3,6 -3,10 0,5 2,9 6,13 4,3 10,5 17,5 8,0 14,-2 20,-5 6,-3 10,-8 13,-14 2,-4 3,-10 3,-19l0 -7z"/>
  <path class="fil6" d="M4029 2520l0 -159 19 0 0 159 -19 0z"/>
  <path class="fil6" d="M4097 2520l-18 0 0 -159 19 0 0 56c8,-10 19,-15 32,-15 7,0 13,1 20,4 6,3 11,7 15,12 4,5 8,12 10,19 2,7 3,15 3,23 0,20 -5,35 -14,46 -10,11 -22,16 -35,16 -14,0 -25,-5 -32,-17l0 15zm-1 -59c0,14 2,24 6,30 6,10 14,15 25,15 9,0 16,-4 22,-11 6,-7 9,-18 9,-33 0,-15 -3,-26 -9,-33 -6,-7 -13,-11 -21,-11 -9,0 -16,4 -22,11 -6,7 -10,18 -10,32z"/>
  <path class="fil6" d="M4277 2520l0 -15c-8,11 -18,17 -32,17 -10,0 -18,-2 -26,-7 -7,-5 -13,-12 -18,-22 -4,-9 -6,-19 -6,-31 0,-11 2,-22 6,-31 4,-9 9,-17 17,-22 8,-5 16,-7 26,-7 7,0 13,1 18,4 6,3 10,7 13,12l0 -57 20 0 0 159 -18 0zm-62 -58c0,15 3,26 9,33 7,8 14,11 22,11 9,0 16,-3 22,-10 6,-7 9,-18 9,-32 0,-16 -3,-28 -9,-35 -6,-7 -14,-11 -22,-11 -9,0 -16,4 -22,11 -6,7 -9,18 -9,33z"/>
  <path class="fil6" d="M4401 2520l0 -17c-9,13 -21,19 -37,19 -6,0 -13,-1 -19,-4 -5,-2 -10,-6 -13,-10 -3,-3 -5,-8 -6,-14 -1,-4 -1,-10 -1,-18l0 -72 20 0 0 64c0,11 0,17 1,21 1,5 4,9 8,12 4,3 8,4 14,4 6,0 12,-1 17,-4 5,-3 9,-7 11,-12 2,-6 3,-13 3,-23l0 -62 19 0 0 116 -17 0z"/>
  <path class="fil6" d="M4449 2520l0 -116 17 0 0 18c5,-8 9,-14 13,-16 3,-3 8,-4 12,-4 7,0 13,2 20,6l-6 18c-5,-3 -10,-4 -15,-4 -4,0 -8,1 -11,4 -4,2 -6,6 -7,11 -3,6 -4,14 -4,22l0 61 -19 0z"/>
  <path class="fil6" d="M4598 2477l19 3c-2,13 -7,24 -16,31 -9,7 -19,11 -32,11 -15,0 -28,-5 -38,-15 -9,-11 -14,-25 -14,-45 0,-12 2,-23 6,-32 4,-9 10,-16 19,-21 8,-5 17,-7 27,-7 13,0 23,3 31,9 8,7 13,16 15,27l-19 3c-1,-7 -5,-13 -9,-17 -5,-4 -10,-6 -17,-6 -10,0 -18,3 -24,11 -6,7 -9,18 -9,33 0,15 3,27 9,34 6,7 14,10 23,10 8,0 14,-2 19,-7 5,-5 9,-12 10,-22z"/>
  <path class="fil6" d="M4634 2520l0 -159 19 0 0 57c9,-11 21,-16 35,-16 8,0 16,2 22,5 6,3 11,8 14,14 2,6 4,14 4,26l0 73 -20 0 0 -73c0,-10 -2,-17 -6,-22 -4,-4 -10,-6 -18,-6 -6,0 -11,1 -16,4 -6,3 -9,7 -11,12 -3,5 -4,13 -4,22l0 63 -19 0z"/>
  <path class="fil6" d="M4757 2520l0 -159 19 0 0 159 -19 0z"/>
  <path class="fil6" d="M4882 2505c-8,7 -14,11 -21,13 -7,3 -14,4 -22,4 -12,0 -22,-3 -29,-9 -7,-6 -10,-14 -10,-24 0,-5 1,-11 4,-15 2,-5 6,-9 10,-11 4,-3 9,-5 14,-7 4,-1 10,-2 17,-3 16,-2 28,-4 35,-6 0,-3 0,-5 0,-6 0,-7 -2,-13 -5,-16 -5,-5 -13,-7 -23,-7 -9,0 -15,2 -20,5 -4,3 -7,9 -10,17l-19 -3c2,-8 5,-14 9,-19 4,-5 10,-9 17,-12 8,-3 16,-4 26,-4 10,0 18,1 24,3 6,3 11,6 14,9 3,4 5,8 6,13 0,4 1,10 1,18l0 26c0,19 0,30 1,35 1,5 3,9 5,14l-20 0c-2,-4 -4,-9 -4,-15zm-2 -43c-7,3 -18,5 -32,7 -8,1 -13,3 -17,4 -3,2 -6,4 -7,6 -2,3 -3,6 -3,10 0,5 2,9 6,13 4,3 9,5 17,5 8,0 14,-2 20,-5 6,-3 10,-8 13,-14 2,-4 3,-10 3,-19l0 -7zm-57 -80l0 -22 20 0 0 22 -20 0zm40 0l0 -22 20 0 0 22 -20 0z"/>
  <path class="fil6" d="M4922 2485l20 -3c1,8 4,14 9,18 5,4 11,6 20,6 9,0 16,-2 20,-5 5,-4 7,-8 7,-13 0,-5 -2,-8 -6,-11 -3,-1 -9,-4 -20,-6 -14,-4 -24,-7 -30,-10 -5,-2 -9,-6 -12,-11 -3,-4 -5,-9 -5,-15 0,-5 2,-10 4,-14 2,-5 6,-8 10,-11 3,-2 7,-4 12,-6 5,-1 11,-2 17,-2 9,0 17,1 24,4 7,2 12,6 15,10 3,5 5,11 7,18l-20 3c0,-6 -3,-11 -7,-14 -4,-3 -10,-5 -18,-5 -9,0 -15,1 -19,4 -4,3 -6,7 -6,11 0,2 1,5 3,7 1,2 4,3 7,5 2,1 8,2 17,5 14,3 24,6 29,9 6,2 10,6 13,10 3,5 5,10 5,17 0,6 -2,12 -6,18 -4,6 -9,10 -16,13 -7,4 -15,5 -25,5 -15,0 -26,-3 -34,-9 -8,-6 -13,-16 -15,-28z"/>
  <path class="fil6" d="M5033 2485l20 -3c1,8 4,14 9,18 5,4 11,6 20,6 9,0 16,-2 20,-5 5,-4 7,-8 7,-13 0,-5 -2,-8 -6,-11 -3,-1 -9,-4 -20,-6 -14,-4 -24,-7 -30,-10 -5,-2 -9,-6 -12,-11 -3,-4 -5,-9 -5,-15 0,-5 2,-10 4,-14 2,-5 6,-8 10,-11 3,-2 7,-4 12,-6 5,-1 11,-2 17,-2 9,0 17,1 24,4 6,2 12,6 15,10 3,5 5,11 6,18l-19 3c0,-6 -3,-11 -7,-14 -4,-3 -10,-5 -18,-5 -9,0 -15,1 -19,4 -4,3 -6,7 -6,11 0,2 1,5 3,7 1,2 4,3 7,5 2,1 8,2 17,5 14,3 24,6 29,9 6,2 10,6 13,10 3,5 5,10 5,17 0,6 -2,12 -6,18 -4,6 -9,10 -16,13 -7,4 -16,5 -25,5 -15,0 -26,-3 -34,-9 -8,-6 -13,-16 -15,-28z"/>
  <path class="fil6" d="M5152 2383l0 -22 20 0 0 22 -20 0zm0 137l0 -116 20 0 0 116 -20 0z"/>
  <path class="fil6" d="M5198 2529l19 3c1,6 3,10 6,13 5,3 12,5 20,5 9,0 16,-2 21,-5 5,-4 8,-9 10,-15 1,-4 2,-13 1,-25 -8,10 -19,15 -31,15 -16,0 -28,-6 -37,-18 -9,-11 -13,-25 -13,-41 0,-11 2,-21 6,-30 4,-9 10,-16 17,-22 8,-5 17,-7 27,-7 13,0 24,5 33,16l0 -14 18 0 0 100c0,18 -2,31 -5,38 -4,8 -10,13 -18,18 -7,4 -17,6 -29,6 -13,0 -25,-3 -33,-9 -8,-6 -13,-15 -12,-28zm16 -69c0,15 3,26 9,33 6,7 13,10 22,10 9,0 17,-3 23,-10 6,-7 9,-18 9,-32 0,-14 -3,-25 -9,-32 -7,-7 -14,-11 -23,-11 -9,0 -16,4 -22,11 -6,7 -9,17 -9,31z"/>
  <path class="fil6" d="M5404 2483l20 2c-3,12 -9,21 -18,27 -9,7 -20,10 -33,10 -17,0 -30,-5 -40,-15 -10,-11 -15,-25 -15,-44 0,-19 5,-34 15,-45 10,-11 23,-16 39,-16 15,0 28,5 38,16 10,10 14,25 14,44 0,1 0,3 0,5l-86 0c1,13 5,22 11,29 7,7 15,10 24,10 7,0 13,-2 19,-5 5,-4 9,-10 12,-18zm-64 -32l64 0c-1,-10 -4,-17 -8,-22 -6,-7 -14,-11 -24,-11 -9,0 -16,3 -22,9 -6,6 -10,14 -10,24z"/>
  <path class="fil6" d="M5448 2520l0 -116 18 0 0 18c4,-8 8,-14 12,-16 4,-3 8,-4 12,-4 7,0 14,2 21,6l-7 18c-5,-3 -10,-4 -14,-4 -5,0 -9,1 -12,4 -3,2 -6,6 -7,11 -2,6 -3,14 -3,22l0 61 -20 0z"/>
  <path class="fil6" d="M3778 2718l20 -2c1,8 3,14 6,19 4,6 9,10 16,13 7,3 15,4 25,4 8,0 15,-1 21,-3 6,-3 10,-6 13,-10 3,-4 5,-9 5,-14 0,-5 -1,-9 -4,-13 -3,-3 -8,-6 -15,-9 -4,-2 -13,-4 -28,-8 -15,-3 -25,-7 -31,-10 -7,-4 -13,-9 -17,-14 -3,-6 -5,-13 -5,-20 0,-8 2,-16 7,-23 4,-7 11,-12 20,-16 8,-3 18,-5 29,-5 12,0 22,2 31,6 9,3 16,9 21,16 4,8 7,16 7,25l-20 2c-1,-10 -4,-18 -11,-23 -6,-5 -15,-7 -27,-7 -13,0 -22,2 -28,7 -6,4 -9,10 -9,16 0,6 2,11 6,14 4,4 15,8 32,12 17,4 29,7 35,10 9,4 16,10 21,16 4,7 6,14 6,23 0,8 -2,16 -7,24 -5,7 -12,13 -21,17 -9,4 -19,6 -30,6 -15,0 -27,-2 -37,-6 -9,-4 -17,-10 -23,-19 -5,-8 -8,-18 -8,-28z"/>
  <path class="fil6" d="M3920 2813l0 -159 18 0 0 14c4,-5 9,-10 14,-13 5,-3 11,-4 19,-4 10,0 18,2 26,7 8,6 13,13 17,22 4,9 6,19 6,30 0,12 -2,23 -7,32 -4,9 -10,17 -18,22 -8,5 -17,7 -25,7 -7,0 -13,-1 -18,-4 -5,-3 -9,-6 -13,-10l0 56 -19 0zm18 -101c0,15 3,25 8,33 6,7 14,10 22,10 9,0 16,-3 23,-11 6,-7 9,-19 9,-34 0,-15 -3,-26 -9,-33 -6,-7 -13,-11 -22,-11 -8,0 -16,4 -22,12 -6,8 -9,19 -9,34z"/>
  <path class="fil6" d="M4043 2632l0 -22 20 0 0 22 -20 0zm0 137l0 -115 20 0 0 115 -20 0z"/>
  <path class="fil6" d="M4171 2732l21 2c-4,12 -10,21 -18,27 -9,7 -20,10 -33,10 -17,0 -30,-5 -40,-15 -10,-11 -15,-25 -15,-44 0,-19 5,-34 15,-45 10,-11 23,-16 39,-16 15,0 28,5 38,16 9,10 14,25 14,44 0,1 0,3 0,5l-86 0c1,13 5,22 11,29 6,7 14,10 24,10 7,0 13,-2 18,-5 5,-4 9,-10 12,-18zm-64 -32l65 0c-1,-10 -4,-17 -8,-22 -6,-7 -14,-11 -24,-11 -9,0 -16,3 -23,9 -6,6 -9,14 -10,24z"/>
  <path class="fil6" d="M4212 2778l19 3c1,6 3,10 7,13 5,3 12,5 20,5 9,0 16,-2 21,-5 5,-4 8,-9 10,-15 1,-4 1,-13 1,-25 -8,10 -19,15 -32,15 -16,0 -28,-6 -36,-18 -9,-11 -13,-25 -13,-41 0,-11 2,-21 6,-30 4,-9 9,-16 17,-22 7,-5 16,-7 26,-7 14,0 25,5 34,16l0 -13 18 0 0 99c0,18 -2,31 -5,38 -4,8 -10,14 -18,18 -8,4 -17,6 -29,6 -14,0 -25,-3 -33,-9 -9,-6 -13,-15 -13,-28zm17 -69c0,15 3,26 9,33 6,7 13,10 22,10 9,0 17,-3 23,-10 6,-7 9,-18 9,-32 0,-14 -3,-25 -10,-32 -6,-7 -13,-11 -22,-11 -9,0 -16,4 -22,11 -6,7 -9,17 -9,31z"/>
  <path class="fil6" d="M4418 2732l20 2c-3,12 -9,21 -17,27 -9,7 -20,10 -33,10 -17,0 -30,-5 -40,-15 -10,-11 -15,-25 -15,-44 0,-19 5,-34 15,-45 10,-11 23,-16 39,-16 15,0 28,5 37,16 10,10 15,25 15,44 0,1 0,3 0,5l-86 0c1,13 4,22 11,29 6,7 14,10 24,10 7,0 13,-2 18,-5 5,-4 9,-10 12,-18zm-64 -32l64 0c0,-10 -3,-17 -7,-22 -6,-7 -14,-11 -24,-11 -9,0 -17,3 -23,9 -6,6 -9,14 -10,24z"/>
  <path class="fil6" d="M4463 2769l0 -159 19 0 0 159 -19 0z"/>
  <path class="fil6" d="M3910 350l20 -2c1,8 3,15 7,20 3,5 8,9 16,12 7,4 15,5 24,5 8,0 15,-1 21,-3 6,-3 11,-6 14,-10 3,-4 5,-9 5,-14 0,-5 -2,-9 -5,-13 -3,-4 -8,-7 -14,-9 -4,-2 -14,-5 -28,-8 -15,-4 -25,-7 -31,-10 -8,-4 -13,-9 -17,-15 -4,-6 -6,-12 -6,-20 0,-8 3,-15 7,-22 5,-7 11,-12 20,-16 9,-4 19,-5 29,-5 12,0 22,2 31,5 9,4 16,10 21,17 5,7 8,16 8,25l-20 2c-1,-10 -5,-18 -11,-23 -6,-5 -16,-8 -28,-8 -13,0 -22,3 -28,7 -5,5 -8,10 -8,17 0,6 2,10 6,14 4,4 14,8 31,11 18,4 29,8 36,11 9,4 16,9 20,16 5,6 7,14 7,22 0,9 -3,17 -8,24 -4,8 -11,14 -20,18 -9,4 -20,6 -31,6 -14,0 -26,-2 -36,-6 -10,-4 -17,-11 -23,-19 -6,-9 -8,-18 -9,-29z"/>
  <path class="fil6" d="M4052 445l0 -159 18 0 0 15c4,-6 9,-10 14,-13 6,-3 12,-4 20,-4 9,0 18,2 26,7 7,5 13,12 17,22 3,9 5,19 5,30 0,12 -2,22 -6,32 -4,9 -10,16 -18,21 -9,5 -17,8 -26,8 -6,0 -12,-2 -17,-4 -6,-3 -10,-6 -13,-11l0 56 -20 0zm18 -101c0,15 3,26 9,33 6,7 13,11 22,11 8,0 16,-4 22,-11 6,-8 9,-19 9,-34 0,-15 -3,-26 -9,-33 -6,-8 -13,-11 -21,-11 -9,0 -16,4 -22,11 -7,8 -10,20 -10,34z"/>
  <path class="fil6" d="M4176 265l0 -23 19 0 0 23 -19 0zm0 136l0 -115 19 0 0 115 -19 0z"/>
  <path class="fil6" d="M4304 364l20 3c-3,11 -9,21 -18,27 -8,7 -19,10 -33,10 -16,0 -30,-5 -40,-16 -9,-10 -14,-25 -14,-43 0,-20 5,-35 15,-45 10,-11 22,-16 38,-16 16,0 28,5 38,15 10,11 15,26 15,44 0,2 0,3 0,6l-86 0c1,12 4,22 11,29 6,6 14,10 24,10 7,0 13,-2 18,-6 5,-4 9,-10 12,-18zm-64 -31l64 0c-1,-10 -3,-17 -7,-22 -6,-8 -15,-11 -24,-11 -9,0 -17,3 -23,9 -6,6 -9,14 -10,24z"/>
  <path class="fil6" d="M4345 411l19 3c1,5 3,10 7,12 4,4 11,6 19,6 9,0 16,-2 21,-6 5,-3 9,-8 10,-15 1,-4 2,-12 2,-25 -9,10 -19,15 -32,15 -16,0 -28,-5 -37,-17 -9,-11 -13,-25 -13,-41 0,-11 2,-21 6,-30 4,-10 10,-17 17,-22 8,-5 17,-7 27,-7 14,0 25,5 34,16l0 -14 18 0 0 100c0,18 -2,30 -6,38 -4,7 -9,13 -17,17 -8,5 -18,7 -29,7 -14,0 -25,-3 -34,-9 -8,-6 -12,-16 -12,-28zm16 -69c0,15 3,26 9,33 6,7 14,10 23,10 9,0 16,-3 22,-10 6,-7 9,-18 9,-33 0,-14 -3,-24 -9,-32 -6,-7 -14,-10 -23,-10 -8,0 -16,3 -22,10 -6,7 -9,18 -9,32z"/>
  <path class="fil6" d="M4551 364l20 3c-3,11 -9,21 -18,27 -8,7 -19,10 -33,10 -16,0 -30,-5 -40,-16 -10,-10 -14,-25 -14,-43 0,-20 5,-35 14,-45 10,-11 23,-16 39,-16 16,0 28,5 38,15 10,11 15,26 15,44 0,2 0,3 0,6l-86 0c0,12 4,22 10,29 7,6 15,10 24,10 8,0 14,-2 19,-6 5,-4 9,-10 12,-18zm-64 -31l64 0c-1,-10 -3,-17 -7,-22 -7,-8 -15,-11 -24,-11 -9,0 -17,3 -23,9 -6,6 -10,14 -10,24z"/>
  <path class="fil6" d="M4595 401l0 -159 20 0 0 159 -20 0z"/>
  <path class="fil6" d="M5455 4551l20 -2c1,8 3,14 7,20 3,5 8,9 16,12 7,3 15,5 24,5 8,0 15,-2 21,-4 6,-2 11,-6 14,-10 3,-4 4,-8 4,-13 0,-5 -1,-10 -4,-13 -3,-4 -8,-7 -14,-10 -4,-1 -14,-4 -28,-8 -15,-3 -25,-6 -31,-10 -8,-3 -13,-8 -17,-14 -4,-6 -6,-13 -6,-20 0,-8 3,-16 7,-23 5,-7 11,-12 20,-15 9,-4 19,-6 29,-6 12,0 22,2 31,6 9,4 16,9 21,17 5,7 8,15 8,25l-20 1c-1,-10 -5,-18 -11,-23 -6,-5 -16,-7 -28,-7 -13,0 -22,2 -28,7 -6,4 -8,10 -8,16 0,6 2,11 6,15 4,3 14,7 31,11 18,4 29,7 36,10 9,4 16,10 20,16 5,7 7,14 7,23 0,8 -3,16 -8,24 -4,7 -11,13 -20,17 -9,4 -20,6 -31,6 -14,0 -26,-2 -36,-6 -10,-4 -18,-10 -23,-19 -6,-8 -8,-18 -9,-28z"/>
  <path class="fil6" d="M5597 4646l0 -159 18 0 0 15c4,-6 9,-11 14,-14 6,-3 12,-4 19,-4 10,0 19,3 26,8 8,5 14,12 17,21 4,9 6,19 6,30 0,12 -2,23 -6,32 -4,10 -10,17 -19,22 -8,5 -16,7 -25,7 -6,0 -12,-1 -17,-4 -6,-3 -10,-6 -13,-10l0 56 -20 0zm18 -101c0,15 3,26 9,33 6,7 13,10 22,10 8,0 16,-3 22,-11 6,-7 9,-18 9,-34 0,-14 -3,-25 -9,-33 -6,-7 -13,-11 -21,-11 -9,0 -16,4 -22,12 -7,8 -10,19 -10,34z"/>
  <path class="fil6" d="M5721 4465l0 -22 19 0 0 22 -19 0zm0 137l0 -115 19 0 0 115 -19 0z"/>
  <path class="fil6" d="M5849 4565l20 2c-3,12 -9,21 -18,28 -8,6 -19,9 -33,9 -16,0 -30,-5 -40,-15 -9,-11 -14,-25 -14,-44 0,-19 5,-34 15,-45 10,-11 22,-16 38,-16 16,0 28,5 38,16 10,10 15,25 15,44 0,1 0,3 0,5l-86 0c0,13 4,23 10,29 7,7 15,10 25,10 7,0 13,-2 18,-5 5,-4 9,-10 12,-18zm-64 -32l64 0c-1,-10 -3,-17 -7,-22 -6,-7 -15,-11 -24,-11 -9,0 -17,3 -23,9 -6,6 -10,14 -10,24z"/>
  <path class="fil6" d="M5890 4611l19 3c1,6 3,10 7,13 4,3 11,5 19,5 9,0 16,-2 21,-5 5,-4 9,-9 10,-15 1,-4 2,-13 2,-25 -9,10 -19,15 -32,15 -16,0 -28,-6 -37,-17 -9,-12 -13,-26 -13,-41 0,-11 2,-22 6,-31 4,-9 10,-16 17,-21 8,-5 17,-8 27,-8 13,0 25,6 33,17l0 -14 19 0 0 99c0,18 -2,31 -6,38 -4,8 -9,14 -17,18 -8,4 -18,6 -30,6 -13,0 -24,-3 -33,-9 -8,-6 -12,-15 -12,-28zm16 -69c0,15 3,26 9,33 6,7 14,11 23,11 9,0 16,-4 22,-11 6,-7 9,-17 9,-32 0,-14 -3,-25 -9,-32 -6,-7 -14,-11 -23,-11 -8,0 -16,4 -22,11 -6,7 -9,17 -9,31z"/>
  <path class="fil6" d="M6096 4565l20 2c-3,12 -9,21 -18,28 -8,6 -19,9 -33,9 -17,0 -30,-5 -40,-15 -10,-11 -15,-25 -15,-44 0,-19 5,-34 15,-45 10,-11 23,-16 39,-16 16,0 28,5 38,16 10,10 15,25 15,44 0,1 0,3 -1,5l-85 0c0,13 4,23 10,29 7,7 15,10 24,10 8,0 14,-2 19,-5 5,-4 9,-10 12,-18zm-64 -32l64 0c-1,-10 -3,-17 -7,-22 -7,-7 -15,-11 -25,-11 -8,0 -16,3 -22,9 -6,6 -10,14 -10,24z"/>
  <path class="fil6" d="M6140 4602l0 -159 19 0 0 159 -19 0z"/>
  <path class="fil0 str0" d="M3894 10l0 94 -1982 0 0 -94 1982 0z"/>
  <path class="fil0 str0" d="M6165 2385l95 3 -67 1982 -94 -4 66 -1981z"/>
  <path class="fil1 str0" d="M2879 6297l0 -996 447 0 0 996 -447 0z"/>
  <path class="fil4" d="M2859 1833l-72 -218 -79 215 151 3 0 0z"/>
 </g>
</svg>
